<svg width="28" height="28" viewBox="0 0 28 28" fill="none" xmlns="http://www.w3.org/2000/svg">
<path d="M20.7975 22.1611H7.50133C7.43153 22.1611 7.36078 22.1539 7.29281 22.1381C2.30858 20.9733 1.06092 12.9144 6.80703 11.2225C7.16478 11.1171 7.45704 10.8483 7.58332 10.4974C9.93752 3.95579 18.3369 4.60897 20.7377 10.5503C20.8679 10.8726 21.1396 11.119 21.4667 11.2365C26.0264 12.8739 26.4648 20.5458 21.0595 22.1247C20.9752 22.1494 20.8854 22.1611 20.7975 22.1611Z" stroke="black" stroke-opacity="0.9" stroke-width="2"/>
<path d="M11.1168 13.1084C10.7598 13.1084 10.4028 13.3761 10.4028 13.8224V15.2503H8.97484V13.8224C8.97484 13.4654 8.61785 13.1084 8.26086 13.1084C7.90387 13.1084 7.54688 13.3761 7.54688 13.8224V18.1063C7.54688 18.4633 7.81462 18.8203 8.26086 18.8203C8.7071 18.8203 8.97484 18.5525 8.97484 18.1063V16.6783H10.4921V18.1063C10.4921 18.4633 10.7598 18.8203 11.206 18.8203C11.6523 18.8203 11.92 18.5525 11.92 18.1063V13.8224C11.7415 13.4654 11.4738 13.1084 11.1168 13.1084ZM14.5975 17.8385H13.9727L14.3297 17.5708C14.5975 17.3923 14.6867 17.0353 14.776 16.7676C14.776 16.4106 14.6867 16.1428 14.419 15.9643C13.9727 15.5181 13.348 15.5181 12.9017 15.8751L12.634 16.1428C12.4555 16.3213 12.4555 16.5891 12.5448 16.7676C12.7233 16.9461 12.991 16.9461 13.1695 16.8568L13.4372 16.5891C13.5265 16.4998 13.6157 16.4998 13.705 16.5891C13.7942 16.6783 13.7942 16.6783 13.7942 16.7676C13.7942 16.7676 13.7942 16.8568 13.705 16.9461L12.3663 18.017C12.1878 18.1063 12.1878 18.374 12.1878 18.5525C12.277 18.731 12.4555 18.8203 12.634 18.8203H14.5082C14.776 18.8203 14.9544 18.6418 14.9544 18.374C14.9544 18.1063 14.776 17.8385 14.5975 17.8385ZM17.1856 14.4471H18.9706C19.3276 14.4471 19.6846 14.1794 19.6846 13.7331C19.6846 13.2869 19.3276 13.1084 18.9706 13.1084H17.1856C16.2039 13.1084 15.4899 13.9116 15.4899 14.8041C15.4899 15.6966 16.2932 16.4998 17.1856 16.4998H17.8996C18.0781 16.4998 18.2566 16.6783 18.2566 16.8568C18.2566 17.0353 18.0781 17.2138 17.8996 17.2138H16.1147C15.7577 17.2138 15.4007 17.4815 15.4007 17.9278C15.4007 18.374 15.6684 18.6418 16.1147 18.6418H17.8996C18.8814 18.6418 19.5953 17.8385 19.5953 16.9461C19.5953 16.0536 18.7921 15.2503 17.8996 15.2503H17.1856C17.0071 15.2503 16.8287 15.0719 16.8287 14.8934C16.8287 14.7149 17.0071 14.4471 17.1856 14.4471Z" fill="black" fill-opacity="0.9"/>
</svg>
