<svg width="20" height="20" viewBox="0 0 20 20" fill="none" xmlns="http://www.w3.org/2000/svg">
<g opacity="0.55">
<g clip-path="url(#clip0_57432_18366)">
<path d="M10.0006 6.56351C10.513 6.56351 10.9387 6.98835 10.9389 7.50073C10.9389 8.01322 10.5131 8.43895 10.0006 8.43895H9.37616C8.86366 8.43895 8.43895 8.86366 8.43895 9.37616V16.8759C8.43895 17.3884 8.86366 17.8131 9.37616 17.8131H16.8759C17.3884 17.8131 17.8131 17.3884 17.8131 16.8759V9.37616C17.8131 8.86366 17.3884 8.43895 16.8759 8.43895H15.0015C14.489 8.43895 14.0632 8.01322 14.0632 7.50073C14.0634 6.98835 14.489 6.56351 15.0015 6.56351H16.8759C18.4259 6.56351 19.6885 7.82617 19.6885 9.37616V16.8759C19.6885 18.4259 18.4259 19.6885 16.8759 19.6885H9.37616C7.82617 19.6885 6.56351 18.4259 6.56351 16.8759V9.37616C6.56351 7.82617 7.82617 6.56351 9.37616 6.56351H10.0006Z" fill="black"/>
<path d="M10.6271 0.31274C12.1771 0.31274 13.4398 1.57539 13.4398 3.12539V10.6251C13.4398 12.1751 12.1771 13.4377 10.6271 13.4377H10.0026C9.49027 13.4377 9.06463 13.0129 9.06443 12.5005C9.06443 11.988 9.49015 11.5623 10.0026 11.5623H10.6271C11.1396 11.5623 11.5643 11.1376 11.5643 10.6251V3.12539C11.5643 2.61289 11.1396 2.18817 10.6271 2.18817H3.1274C2.61491 2.18817 2.19019 2.61289 2.19019 3.12539V10.6251C2.19019 11.1376 2.61491 11.5623 3.1274 11.5623H5.00183C5.51433 11.5623 5.94005 11.988 5.94005 12.5005C5.93985 13.0129 5.5142 13.4377 5.00183 13.4377H3.1274C1.57741 13.4377 0.314758 12.1751 0.314758 10.6251V3.12539C0.314758 1.57539 1.57741 0.31274 3.1274 0.31274H10.6271Z" fill="black"/>
</g>
</g>
<defs>
<clipPath id="clip0_57432_18366">
<rect width="19.36" height="19.36" fill="white" transform="scale(1.03305)"/>
</clipPath>
</defs>
</svg>
